<mxfile host="app.diagrams.net" modified="2022-08-21T14:31:26.842Z" agent="5.0 (X11; Linux x86_64) AppleWebKit/537.36 (KHTML, like Gecko) Chrome/103.0.0.0 Safari/537.36" etag="RbPb1w7vKbuotkv09tAh" version="20.1.4" type="github">
  <diagram id="C5RBs43oDa-KdzZeNtuy" name="Page-1">
    <mxGraphModel dx="1422" dy="920" grid="1" gridSize="10" guides="1" tooltips="1" connect="1" arrows="1" fold="1" page="1" pageScale="1" pageWidth="827" pageHeight="1169" math="0" shadow="0">
      <root>
        <mxCell id="WIyWlLk6GJQsqaUBKTNV-0" />
        <mxCell id="WIyWlLk6GJQsqaUBKTNV-1" parent="WIyWlLk6GJQsqaUBKTNV-0" />
        <mxCell id="WIyWlLk6GJQsqaUBKTNV-2" value="" style="rounded=0;html=1;jettySize=auto;orthogonalLoop=1;fontSize=11;endArrow=block;endFill=0;endSize=8;strokeWidth=1;shadow=0;labelBackgroundColor=none;edgeStyle=orthogonalEdgeStyle;" parent="WIyWlLk6GJQsqaUBKTNV-1" source="WIyWlLk6GJQsqaUBKTNV-3" target="EApHNpEu1a42cUkrtnI0-0" edge="1">
          <mxGeometry relative="1" as="geometry">
            <mxPoint x="220" y="150" as="targetPoint" />
          </mxGeometry>
        </mxCell>
        <mxCell id="WIyWlLk6GJQsqaUBKTNV-3" value="Start" style="rounded=1;whiteSpace=wrap;html=1;fontSize=12;glass=0;strokeWidth=1;shadow=0;" parent="WIyWlLk6GJQsqaUBKTNV-1" vertex="1">
          <mxGeometry x="160" y="80" width="120" height="40" as="geometry" />
        </mxCell>
        <mxCell id="EApHNpEu1a42cUkrtnI0-23" style="edgeStyle=orthogonalEdgeStyle;rounded=0;orthogonalLoop=1;jettySize=auto;html=1;" edge="1" parent="WIyWlLk6GJQsqaUBKTNV-1" source="EApHNpEu1a42cUkrtnI0-0">
          <mxGeometry relative="1" as="geometry">
            <mxPoint x="220" y="280" as="targetPoint" />
          </mxGeometry>
        </mxCell>
        <mxCell id="EApHNpEu1a42cUkrtnI0-0" value="input: int x,y,z" style="shape=parallelogram;perimeter=parallelogramPerimeter;whiteSpace=wrap;html=1;fixedSize=1;" vertex="1" parent="WIyWlLk6GJQsqaUBKTNV-1">
          <mxGeometry x="160" y="160" width="120" height="60" as="geometry" />
        </mxCell>
        <mxCell id="EApHNpEu1a42cUkrtnI0-32" style="edgeStyle=orthogonalEdgeStyle;rounded=0;orthogonalLoop=1;jettySize=auto;html=1;" edge="1" parent="WIyWlLk6GJQsqaUBKTNV-1" source="EApHNpEu1a42cUkrtnI0-24" target="EApHNpEu1a42cUkrtnI0-25">
          <mxGeometry relative="1" as="geometry" />
        </mxCell>
        <mxCell id="EApHNpEu1a42cUkrtnI0-24" value="initialize x, y, z as&lt;br&gt;elements of&amp;nbsp;type list n" style="rounded=0;whiteSpace=wrap;html=1;fillStyle=solid;" vertex="1" parent="WIyWlLk6GJQsqaUBKTNV-1">
          <mxGeometry x="160" y="280" width="120" height="60" as="geometry" />
        </mxCell>
        <mxCell id="EApHNpEu1a42cUkrtnI0-33" style="edgeStyle=orthogonalEdgeStyle;rounded=0;orthogonalLoop=1;jettySize=auto;html=1;entryX=0.5;entryY=0;entryDx=0;entryDy=0;" edge="1" parent="WIyWlLk6GJQsqaUBKTNV-1" source="EApHNpEu1a42cUkrtnI0-25" target="EApHNpEu1a42cUkrtnI0-28">
          <mxGeometry relative="1" as="geometry" />
        </mxCell>
        <mxCell id="EApHNpEu1a42cUkrtnI0-35" style="edgeStyle=orthogonalEdgeStyle;rounded=0;orthogonalLoop=1;jettySize=auto;html=1;exitX=1;exitY=0.5;exitDx=0;exitDy=0;entryX=0;entryY=0.5;entryDx=0;entryDy=0;" edge="1" parent="WIyWlLk6GJQsqaUBKTNV-1" source="EApHNpEu1a42cUkrtnI0-25" target="EApHNpEu1a42cUkrtnI0-27">
          <mxGeometry relative="1" as="geometry" />
        </mxCell>
        <mxCell id="EApHNpEu1a42cUkrtnI0-25" value="is n[i] * -1&lt;br&gt;equal to -n[i] ?" style="rhombus;whiteSpace=wrap;html=1;fillStyle=solid;" vertex="1" parent="WIyWlLk6GJQsqaUBKTNV-1">
          <mxGeometry x="165" y="390" width="110" height="120" as="geometry" />
        </mxCell>
        <mxCell id="EApHNpEu1a42cUkrtnI0-36" style="edgeStyle=orthogonalEdgeStyle;rounded=0;orthogonalLoop=1;jettySize=auto;html=1;exitX=1;exitY=0.5;exitDx=0;exitDy=0;entryX=0;entryY=0.5;entryDx=0;entryDy=0;" edge="1" parent="WIyWlLk6GJQsqaUBKTNV-1" source="EApHNpEu1a42cUkrtnI0-27" target="EApHNpEu1a42cUkrtnI0-30">
          <mxGeometry relative="1" as="geometry" />
        </mxCell>
        <mxCell id="EApHNpEu1a42cUkrtnI0-27" value="break" style="rounded=0;whiteSpace=wrap;html=1;fillStyle=solid;" vertex="1" parent="WIyWlLk6GJQsqaUBKTNV-1">
          <mxGeometry x="350" y="420" width="120" height="60" as="geometry" />
        </mxCell>
        <mxCell id="EApHNpEu1a42cUkrtnI0-34" style="edgeStyle=orthogonalEdgeStyle;rounded=0;orthogonalLoop=1;jettySize=auto;html=1;entryX=0.5;entryY=0;entryDx=0;entryDy=0;" edge="1" parent="WIyWlLk6GJQsqaUBKTNV-1" source="EApHNpEu1a42cUkrtnI0-28" target="EApHNpEu1a42cUkrtnI0-31">
          <mxGeometry relative="1" as="geometry" />
        </mxCell>
        <mxCell id="EApHNpEu1a42cUkrtnI0-28" value="continue and &lt;br&gt;add n[i] to&lt;br&gt;itself" style="rounded=0;whiteSpace=wrap;html=1;fillStyle=solid;" vertex="1" parent="WIyWlLk6GJQsqaUBKTNV-1">
          <mxGeometry x="160" y="570" width="120" height="60" as="geometry" />
        </mxCell>
        <mxCell id="EApHNpEu1a42cUkrtnI0-30" value="End" style="rounded=1;whiteSpace=wrap;html=1;fillStyle=solid;" vertex="1" parent="WIyWlLk6GJQsqaUBKTNV-1">
          <mxGeometry x="550" y="420" width="120" height="60" as="geometry" />
        </mxCell>
        <mxCell id="EApHNpEu1a42cUkrtnI0-31" value="End" style="rounded=1;whiteSpace=wrap;html=1;fillStyle=solid;" vertex="1" parent="WIyWlLk6GJQsqaUBKTNV-1">
          <mxGeometry x="160" y="710" width="120" height="60" as="geometry" />
        </mxCell>
        <mxCell id="EApHNpEu1a42cUkrtnI0-39" style="edgeStyle=orthogonalEdgeStyle;rounded=0;orthogonalLoop=1;jettySize=auto;html=1;dashed=1;strokeWidth=2;" edge="1" parent="WIyWlLk6GJQsqaUBKTNV-1" source="EApHNpEu1a42cUkrtnI0-37">
          <mxGeometry relative="1" as="geometry">
            <mxPoint x="220" y="360" as="targetPoint" />
          </mxGeometry>
        </mxCell>
        <mxCell id="EApHNpEu1a42cUkrtnI0-37" value="" style="strokeWidth=2;html=1;shape=mxgraph.flowchart.annotation_2;align=left;labelPosition=right;pointerEvents=1;fillStyle=solid;rotation=-180;dashed=1;" vertex="1" parent="WIyWlLk6GJQsqaUBKTNV-1">
          <mxGeometry x="80" y="330" width="50" height="60" as="geometry" />
        </mxCell>
        <mxCell id="EApHNpEu1a42cUkrtnI0-40" value="While loop" style="text;html=1;align=center;verticalAlign=middle;resizable=0;points=[];autosize=1;strokeColor=none;fillColor=none;" vertex="1" parent="WIyWlLk6GJQsqaUBKTNV-1">
          <mxGeometry x="20" y="345" width="80" height="30" as="geometry" />
        </mxCell>
        <mxCell id="EApHNpEu1a42cUkrtnI0-41" value="False" style="text;html=1;align=center;verticalAlign=middle;resizable=0;points=[];autosize=1;strokeColor=none;fillColor=none;" vertex="1" parent="WIyWlLk6GJQsqaUBKTNV-1">
          <mxGeometry x="275" y="405" width="50" height="30" as="geometry" />
        </mxCell>
        <mxCell id="EApHNpEu1a42cUkrtnI0-42" value="True" style="text;html=1;align=center;verticalAlign=middle;resizable=0;points=[];autosize=1;strokeColor=none;fillColor=none;" vertex="1" parent="WIyWlLk6GJQsqaUBKTNV-1">
          <mxGeometry x="215" y="515" width="50" height="30" as="geometry" />
        </mxCell>
        <mxCell id="EApHNpEu1a42cUkrtnI0-43" value="i is index&amp;nbsp;&lt;br&gt;of elements&lt;br&gt;in n" style="text;html=1;align=center;verticalAlign=middle;resizable=0;points=[];autosize=1;strokeColor=none;fillColor=none;" vertex="1" parent="WIyWlLk6GJQsqaUBKTNV-1">
          <mxGeometry x="100" y="360" width="90" height="60" as="geometry" />
        </mxCell>
      </root>
    </mxGraphModel>
  </diagram>
</mxfile>
